<?xml version="1.0" encoding="utf-8"?>
<!-- Generator: Adobe Illustrator 27.5.0, SVG Export Plug-In . SVG Version: 6.00 Build 0)  -->
<svg version="1.1" id="Capa_1" xmlns="http://www.w3.org/2000/svg" xmlns:xlink="http://www.w3.org/1999/xlink" x="0px" y="0px"
	 viewBox="0 0 2372 1898" style="enable-background:new 0 0 2372 1898;" xml:space="preserve">
<path style="fill:#48474E;" d="M1193.562,344.56v-0.172c-2.573,0.021-5.141,0.047-7.708,0.076c-2.568-0.028-5.137-0.055-7.708-0.076
	v0.172c-523.068,7.251-940.975,163.017-940.975,354.126c0,94.925,41.627,298.679,173.761,483.405
	c-0.063-0.046-0.124-0.094-0.187-0.141c104.201,145.751,264.771,279.668,505.878,338.932c0.271,0.067,0.542,0.134,0.814,0.201
	c1.758,0.431,3.522,0.854,5.288,1.277c0.453,0.108,0.906,0.218,1.36,0.326c1.604,0.381,3.214,0.757,4.826,1.132
	c0.652,0.152,1.303,0.304,1.956,0.455c1.51,0.349,3.024,0.692,4.542,1.034c0.727,0.164,1.453,0.328,2.182,0.492
	c1.474,0.329,2.952,0.654,4.432,0.978c0.791,0.173,1.583,0.347,2.376,0.518c1.414,0.306,2.83,0.609,4.248,0.909
	c0.887,0.189,1.775,0.376,2.665,0.562c1.334,0.279,2.67,0.556,4.008,0.83c0.972,0.199,1.944,0.398,2.919,0.595
	c1.315,0.266,2.632,0.529,3.951,0.791c0.982,0.195,1.965,0.388,2.949,0.58c1.302,0.254,2.607,0.508,3.915,0.758
	c1.031,0.197,2.065,0.393,3.1,0.587c1.271,0.239,2.542,0.478,3.817,0.714c1.064,0.196,2.13,0.39,3.196,0.583
	c1.271,0.231,2.542,0.461,3.817,0.688c1.077,0.192,2.159,0.38,3.239,0.569c1.259,0.22,2.519,0.44,3.782,0.656
	c1.111,0.19,2.225,0.376,3.339,0.563c1.249,0.21,2.496,0.42,3.748,0.626c1.151,0.19,2.307,0.374,3.462,0.56
	c1.212,0.195,2.421,0.391,3.637,0.583c1.295,0.204,2.596,0.402,3.895,0.602c1.08,0.166,2.158,0.336,3.241,0.499
	c1.517,0.229,3.041,0.451,4.563,0.675c0.885,0.13,1.766,0.263,2.653,0.391c2.413,0.348,4.833,0.691,7.261,1.025l0.057,0.008
	c1.31,0.181,2.622,0.359,3.936,0.535l0.598,0.08c1.141,0.152,2.283,0.304,3.427,0.453l0.937,0.121
	c1.047,0.136,2.095,0.271,3.145,0.404l1.073,0.135c1.016,0.128,2.031,0.255,3.049,0.38l1.092,0.133
	c1.016,0.124,2.033,0.248,3.052,0.37l1.173,0.139c0.969,0.115,1.939,0.229,2.909,0.342l1.314,0.151
	c0.975,0.112,1.95,0.223,2.927,0.332l1.166,0.13c0.978,0.109,1.959,0.218,2.94,0.324l1.422,0.153
	c0.923,0.099,1.846,0.198,2.771,0.295l1.336,0.139c0.981,0.102,1.961,0.203,2.943,0.303l1.207,0.122
	c1.007,0.101,2.015,0.201,3.026,0.3l1.248,0.122c0.953,0.092,1.909,0.184,2.865,0.274c0.509,0.048,1.019,0.095,1.528,0.143
	c0.89,0.083,1.78,0.165,2.671,0.245c0.528,0.048,1.056,0.095,1.585,0.143c0.892,0.079,1.785,0.158,2.68,0.237
	c0.511,0.045,1.023,0.089,1.535,0.133c0.942,0.081,1.885,0.161,2.83,0.24l1.45,0.12c0.886,0.073,1.774,0.146,2.662,0.216
	c0.588,0.047,1.176,0.094,1.765,0.141c0.836,0.066,1.673,0.131,2.51,0.195c0.585,0.045,1.17,0.09,1.757,0.134
	c0.878,0.066,1.758,0.132,2.638,0.196c0.538,0.04,1.074,0.079,1.612,0.118c0.918,0.066,1.837,0.131,2.757,0.195
	c0.532,0.037,1.064,0.074,1.597,0.11c0.855,0.059,1.711,0.116,2.568,0.173c0.635,0.042,1.268,0.084,1.905,0.125
	c0.771,0.05,1.544,0.099,2.318,0.147c0.674,0.042,1.346,0.085,2.021,0.127c0.821,0.05,1.643,0.099,2.465,0.148
	c0.613,0.037,1.224,0.073,1.838,0.109c0.856,0.05,1.712,0.098,2.57,0.146c0.618,0.035,1.235,0.069,1.854,0.103
	c0.852,0.046,1.706,0.091,2.559,0.136c0.589,0.031,1.175,0.062,1.764,0.092c0.933,0.048,1.867,0.094,2.802,0.14
	c0.534,0.026,1.069,0.053,1.604,0.078c0.87,0.042,1.74,0.081,2.611,0.12c0.636,0.029,1.272,0.059,1.909,0.087
	c0.792,0.035,1.585,0.068,2.379,0.101c0.681,0.029,1.362,0.059,2.044,0.086c0.75,0.031,1.501,0.059,2.252,0.088
	c0.751,0.029,1.502,0.059,2.254,0.088c0.736,0.027,1.474,0.053,2.212,0.079c0.732,0.026,1.463,0.053,2.196,0.078
	c0.749,0.026,1.499,0.05,2.248,0.073c0.754,0.025,1.508,0.05,2.263,0.073c0.812,0.025,1.624,0.047,2.436,0.071
	c0.659,0.018,1.318,0.038,1.979,0.057c0.733,0.02,1.468,0.037,2.203,0.056c0.806,0.021,1.61,0.042,2.417,0.061
	c0.534,0.012,1.07,0.023,1.604,0.035c0.939,0.021,1.877,0.043,2.817,0.063c0.944,0.019,1.891,0.036,2.836,0.054
	c0.566,0.011,1.128,0.022,1.693,0.032c1.509,0.026,3.021,0.049,4.535,0.07v0.128c2.576-0.007,5.143-0.022,7.708-0.043
	c2.563,0.021,5.132,0.036,7.708,0.043v-0.128c1.438-0.02,2.873-0.042,4.307-0.066l1.476-0.027c0.94-0.017,1.879-0.034,2.818-0.053
	c0.556-0.011,1.109-0.023,1.664-0.036c0.888-0.018,1.774-0.037,2.66-0.058c0.546-0.012,1.091-0.026,1.635-0.04
	c0.894-0.022,1.787-0.045,2.679-0.068c0.552-0.015,1.102-0.03,1.653-0.045c0.882-0.024,1.764-0.05,2.645-0.076
	c0.565-0.017,1.128-0.034,1.693-0.052c0.833-0.026,1.666-0.052,2.497-0.08c0.614-0.021,1.227-0.041,1.84-0.062
	c0.827-0.028,1.653-0.057,2.478-0.087c0.553-0.02,1.106-0.04,1.658-0.061c0.948-0.035,1.894-0.073,2.84-0.11l1.374-0.054
	c1.047-0.043,2.092-0.088,3.136-0.132l1.069-0.046c1.126-0.05,2.248-0.101,3.372-0.153l0.9-0.041
	c1.393-0.065,2.786-0.134,4.175-0.204l0.879-0.046c1.126-0.057,2.249-0.116,3.372-0.176l1.24-0.068
	c0.939-0.052,1.877-0.103,2.815-0.157c0.607-0.035,1.214-0.07,1.821-0.106c0.792-0.046,1.583-0.093,2.374-0.14
	c0.546-0.033,1.092-0.068,1.638-0.101c0.868-0.054,1.736-0.108,2.602-0.163c0.526-0.033,1.051-0.068,1.576-0.101
	c0.829-0.054,1.657-0.108,2.484-0.164c0.562-0.038,1.123-0.075,1.684-0.114c0.835-0.057,1.669-0.115,2.502-0.173
	c0.546-0.039,1.09-0.076,1.635-0.116c0.871-0.062,1.74-0.126,2.609-0.19l1.396-0.103c1.012-0.075,2.024-0.153,3.035-0.231
	l1.021-0.079c1.117-0.088,2.233-0.177,3.347-0.267l0.771-0.061c4.168-0.341,8.319-0.701,12.449-1.081l0.234-0.022
	c1.253-0.115,2.505-0.233,3.754-0.351l0.985-0.095c0.987-0.095,1.975-0.191,2.961-0.288l1.277-0.127
	c0.958-0.095,1.914-0.193,2.87-0.29l1.049-0.108c1.033-0.106,2.064-0.214,3.096-0.323l0.912-0.097
	c0.992-0.105,1.983-0.213,2.973-0.321l1.219-0.133c0.953-0.105,1.906-0.212,2.856-0.318l1.074-0.121
	c1.192-0.135,2.383-0.272,3.572-0.411l0.259-0.03c6.786-0.793,13.517-1.64,20.195-2.54l0.277-0.037
	c1.205-0.163,2.409-0.327,3.61-0.493l0.571-0.079c1.138-0.158,2.274-0.317,3.408-0.479l0.541-0.077
	c1.148-0.163,2.296-0.329,3.442-0.496l0.503-0.073c1.181-0.172,2.361-0.347,3.54-0.523l0.321-0.048
	c335.598-50.198,534.074-235.958,646.11-425.357l0.23-0.39c0.358-0.605,0.715-1.21,1.07-1.816l0.253-0.431
	c0.335-0.57,0.669-1.14,1.002-1.71l0.375-0.643l0.834-1.432l0.513-0.883l0.714-1.234l0.551-0.955l0.616-1.07l0.742-1.295
	l0.276-0.482c0.31-0.542,0.619-1.083,0.927-1.624l0.226-0.397c0.641-1.128,1.279-2.257,1.914-3.385
	c0.226-0.401,0.451-0.803,0.676-1.204c0.411-0.733,0.821-1.465,1.23-2.198c0.272-0.487,0.543-0.973,0.813-1.461
	c0.357-0.643,0.713-1.286,1.068-1.928c0.282-0.51,0.564-1.02,0.845-1.53c0.295-0.536,0.588-1.07,0.88-1.606
	c0.711-1.297,1.417-2.595,2.12-3.892c0.15-0.276,0.299-0.551,0.449-0.827c0.442-0.819,0.882-1.639,1.323-2.458
	c0.115-0.214,0.23-0.429,0.346-0.644c0.467-0.872,0.933-1.744,1.396-2.615c0.07-0.131,0.139-0.262,0.209-0.393
	c56.099-105.602,86.363-209.553,99.592-288.95c0.003-0.019,0.007-0.039,0.011-0.059c0.182-1.095,0.362-2.188,0.538-3.274
	c0.049-0.302,0.096-0.602,0.146-0.904c0.089-0.552,0.177-1.103,0.264-1.652c5.126-32.285,7.399-60.304,7.399-82.398
	C2134.538,507.576,1716.63,351.811,1193.562,344.56z"/>
<g>
	<path style="fill:#7B9322;" d="M2027.208,735.948l-0.212-0.377l-0.627-1.099l-0.202-0.351l-0.82-1.393l-0.158-0.263l-0.7-1.157
		l-0.223-0.365c-0.568-0.922-1.149-1.842-1.742-2.76l-0.312-0.481l-0.666-1.013l-0.238-0.36l-0.911-1.35l-0.26-0.379l-0.679-0.982
		l-0.358-0.511l-0.74-1.045l-0.429-0.597l-0.698-0.961l-0.448-0.609l-0.561-0.753l-0.465-0.621l-0.89-1.168l-0.508-0.656
		l-0.51-0.655l-0.553-0.703l-0.525-0.659l-0.99-1.229l-0.42-0.516l-0.663-0.804l-0.391-0.471c-0.779-0.935-1.572-1.867-2.379-2.798
		l-0.242-0.281l-0.827-0.944l-0.132-0.149c-0.904-1.024-1.824-2.045-2.761-3.065l-0.102-0.112c-0.467-0.508-0.939-1.014-1.414-1.52
		c-0.119-0.127-0.239-0.253-0.358-0.379c-0.372-0.394-0.745-0.787-1.122-1.18l-0.369-0.386c-0.424-0.44-0.85-0.88-1.279-1.319
		c-0.056-0.057-0.112-0.115-0.168-0.172c-1.034-1.055-2.086-2.108-3.154-3.157c-0.048-0.048-0.097-0.096-0.146-0.144
		c-0.502-0.492-1.008-0.983-1.517-1.473c-0.032-0.032-0.067-0.065-0.1-0.097c-6.672-6.42-14.002-12.735-21.957-18.939
		c-0.47-0.365-0.941-0.731-1.414-1.096c-0.217-0.167-0.436-0.334-0.653-0.5c-0.341-0.262-0.683-0.524-1.027-0.785
		c-0.223-0.169-0.446-0.338-0.669-0.507c-0.402-0.304-0.806-0.608-1.212-0.912c-0.145-0.109-0.291-0.219-0.436-0.328
		c-1.179-0.881-2.371-1.759-3.575-2.635c-0.086-0.063-0.171-0.125-0.257-0.187c-0.542-0.393-1.085-0.786-1.633-1.179
		c-0.075-0.055-0.151-0.109-0.226-0.163c-125.516-89.943-384.919-154.494-691.719-164.511c-0.003,0-0.006,0-0.008,0
		c-2.89-0.094-5.784-0.184-8.682-0.269c-0.162-0.005-0.324-0.01-0.485-0.014c-3.018-0.088-6.04-0.17-9.067-0.247
		c-0.005,0-0.008-0.001-0.012-0.001c-3.104-0.079-6.212-0.153-9.325-0.22l-0.335-0.007c-1.717-0.037-3.437-0.073-5.157-0.107
		l-0.361-0.007c-1.695-0.033-3.392-0.065-5.09-0.094l-0.43-0.008c-3.625-0.063-7.257-0.118-10.894-0.166l-0.829-0.01
		c-1.512-0.019-3.025-0.037-4.539-0.054l-1.156-0.012c-1.37-0.014-2.742-0.028-4.114-0.041c-0.561-0.005-1.122-0.01-1.683-0.014
		c-1.161-0.01-2.323-0.019-3.486-0.027c-0.679-0.004-1.357-0.009-2.036-0.013c-1.114-0.007-2.228-0.013-3.343-0.018
		c-0.659-0.003-1.318-0.007-1.976-0.009c-1.15-0.004-2.3-0.008-3.451-0.011c-0.637-0.002-1.275-0.004-1.911-0.006
		c-1.75-0.003-3.5-0.005-5.252-0.005c-1.751,0-3.5,0.002-5.25,0.005h-0.058c-0.658,0.002-1.316,0.004-1.974,0.006
		c-1.149,0.003-2.299,0.007-3.447,0.012h-0.041c-0.626,0.002-1.253,0.006-1.88,0.008c-1.22,0.006-2.439,0.013-3.658,0.021
		c-0.606,0.004-1.212,0.007-1.818,0.011c-1.288,0.009-2.576,0.02-3.864,0.031h-0.006c-0.513,0.005-1.026,0.008-1.539,0.012
		c-1.745,0.016-3.489,0.034-5.232,0.054l-0.403,0.004l-1.035,0.013c-1.287,0.015-2.574,0.031-3.859,0.048l-0.591,0.007l-1.163,0.017
		l-0.242,0.003c-1.118,0.016-2.235,0.032-3.351,0.049l-0.642,0.01l-1.44,0.023c-1.321,0.021-2.642,0.043-3.962,0.066l-0.022,0.001
		l-1.156,0.02c-1.833,0.033-3.664,0.068-5.495,0.105l-0.26,0.005c-1.718,0.035-3.434,0.071-5.15,0.11l-0.51,0.011l-0.607,0.014
		c-1.402,0.032-2.801,0.065-4.201,0.099c-0.142,0.003-0.285,0.007-0.428,0.011l-1.103,0.027c-1.421,0.036-2.841,0.073-4.26,0.11
		l-0.436,0.011l-0.572,0.015c-1.723,0.047-3.445,0.095-5.165,0.146c-0.236,0.007-0.472,0.014-0.708,0.021
		c-1.681,0.05-3.362,0.1-5.04,0.153l-0.76,0.025l-0.099,0.003c-1.518,0.049-3.035,0.098-4.55,0.149l-0.457,0.015l-0.085,0.003
		l-0.513,0.018c-1.537,0.052-3.072,0.106-4.606,0.161l-0.837,0.03c-2.74,0.099-5.476,0.202-8.209,0.311
		c-0.047,0.002-0.094,0.003-0.141,0.006c-2.735,0.108-5.467,0.22-8.194,0.337l-0.303,0.013l-0.056,0.002
		c-1.735,0.075-3.469,0.151-5.2,0.229l-0.385,0.017c-2.874,0.13-5.742,0.266-8.608,0.406c-1.593,0.078-3.185,0.157-4.777,0.237
		c-0.676,0.035-1.351,0.069-2.026,0.103c-0.027,0.001-0.054,0.003-0.08,0.004c-2.184,0.113-4.365,0.227-6.543,0.345l-0.148,0.008
		l-0.193,0.011l-0.109,0.006c-1.025,0.056-2.051,0.113-3.075,0.17c-2.204,0.123-4.407,0.248-6.606,0.376
		c-1.294,0.075-2.587,0.152-3.878,0.229l-0.021,0.001c-0.104,0.006-0.208,0.012-0.311,0.018c-0.623,0.037-1.246,0.074-1.868,0.112
		c-0.974,0.059-1.948,0.12-2.921,0.18l-1.474,0.091c-1.087,0.068-2.173,0.138-3.259,0.207l-1.326,0.085
		c-0.964,0.062-1.927,0.126-2.891,0.189c-0.593,0.039-1.186,0.078-1.779,0.117c-1.013,0.068-2.026,0.137-3.039,0.205l-1.287,0.087
		c-1.114,0.076-2.227,0.153-3.339,0.231l-1.199,0.084c-1.057,0.074-2.113,0.15-3.169,0.225l-1.454,0.104
		c-1.009,0.073-2.016,0.147-3.023,0.22l-1.427,0.105c-1.059,0.078-2.119,0.158-3.177,0.238l-1.272,0.096
		c-1.069,0.081-2.138,0.163-3.206,0.245l-1.309,0.102c-1.109,0.086-2.215,0.173-3.323,0.261l-0.879,0.07
		c-1.213,0.096-2.426,0.194-3.637,0.292l-0.875,0.072c-1.181,0.096-2.362,0.194-3.54,0.292l-0.852,0.071
		c-1.221,0.102-2.439,0.205-3.657,0.308l-0.623,0.053c-1.333,0.114-2.665,0.229-3.996,0.345l-0.04,0.003
		c-1.209,0.105-2.416,0.211-3.623,0.319c-0.505,0.045-1.009,0.091-1.514,0.136c-0.734,0.065-1.468,0.131-2.201,0.198
		c-0.789,0.071-1.579,0.143-2.367,0.215c-0.36,0.033-0.721,0.065-1.079,0.098c-0.803,0.074-1.604,0.149-2.406,0.223
		c-0.443,0.041-0.885,0.082-1.326,0.123c-0.858,0.08-1.716,0.161-2.573,0.243c-0.301,0.028-0.602,0.057-0.902,0.086
		c-0.913,0.086-1.825,0.174-2.736,0.262c-0.289,0.028-0.577,0.056-0.865,0.084c-0.865,0.084-1.728,0.168-2.591,0.252
		c-0.371,0.037-0.742,0.073-1.112,0.109c-0.697,0.069-1.394,0.137-2.091,0.207c-0.553,0.055-1.106,0.109-1.658,0.165
		c-0.638,0.063-1.275,0.128-1.911,0.192c-0.545,0.055-1.091,0.11-1.635,0.165c-0.737,0.075-1.474,0.15-2.212,0.226
		c-0.404,0.042-0.81,0.084-1.215,0.125c-0.779,0.08-1.559,0.161-2.337,0.243c-0.431,0.045-0.862,0.09-1.292,0.135
		c-0.771,0.081-1.54,0.162-2.31,0.243c-0.414,0.044-0.828,0.088-1.242,0.132c-0.773,0.083-1.546,0.165-2.319,0.248
		c-0.367,0.039-0.734,0.079-1.099,0.119c-0.882,0.095-1.765,0.191-2.646,0.287c-0.262,0.029-0.523,0.057-0.785,0.086
		c-0.876,0.096-1.751,0.192-2.627,0.289c-0.318,0.035-0.638,0.071-0.957,0.107c-0.925,0.103-1.851,0.206-2.774,0.311
		c-0.121,0.013-0.241,0.027-0.361,0.04c-1.823,0.206-3.642,0.414-5.46,0.624c-0.404,0.046-0.809,0.093-1.213,0.139
		c-0.516,0.06-1.031,0.121-1.547,0.18c-0.571,0.067-1.141,0.133-1.71,0.2c-0.748,0.087-1.495,0.176-2.242,0.264
		c-0.317,0.037-0.634,0.075-0.95,0.112c-0.836,0.1-1.669,0.2-2.503,0.3c-0.265,0.031-0.53,0.063-0.796,0.095
		c-0.725,0.088-1.45,0.176-2.175,0.264c-0.393,0.048-0.788,0.095-1.182,0.143c-0.764,0.094-1.527,0.187-2.29,0.282
		c-0.294,0.036-0.588,0.073-0.881,0.108c-0.838,0.104-1.675,0.208-2.511,0.312c-0.225,0.028-0.45,0.056-0.674,0.084
		c-0.836,0.104-1.671,0.21-2.506,0.315c-0.271,0.034-0.543,0.069-0.814,0.103c-0.817,0.104-1.634,0.208-2.45,0.312
		c-0.264,0.034-0.528,0.068-0.793,0.102c-0.781,0.1-1.561,0.201-2.341,0.302c-0.33,0.043-0.66,0.085-0.989,0.128
		c-0.752,0.098-1.505,0.196-2.257,0.295c-0.292,0.038-0.584,0.077-0.876,0.115c-0.881,0.116-1.76,0.232-2.64,0.349l-0.239,0.031
		C600.93,557.385,397.551,638.57,343.686,737.363c12.573,23.06,33.293,45.161,61.115,65.951c0.097,0.073,0.195,0.146,0.292,0.218
		c0.388,0.289,0.778,0.578,1.169,0.867c0.084,0.063,0.168,0.124,0.252,0.186c0.376,0.278,0.754,0.555,1.132,0.832
		c0.221,0.161,0.442,0.322,0.663,0.483c0.262,0.19,0.522,0.38,0.785,0.571c0.506,0.366,1.014,0.733,1.525,1.098l0.05,0.036
		c0.616,0.441,1.234,0.881,1.857,1.32l0.253,0.178c0.584,0.412,1.17,0.823,1.76,1.233l0.317,0.22
		c0.58,0.403,1.162,0.805,1.747,1.208l0.282,0.193c1.576,1.08,3.173,2.157,4.788,3.229l1.337,0.885l0.821,0.538l1.46,0.953
		l0.759,0.491c0.557,0.36,1.115,0.719,1.677,1.078l0.528,0.337c0.662,0.422,1.326,0.843,1.995,1.263l0.26,0.164
		c142.572,89.66,421.766,150.991,743.796,152.423l0.731,0.003c1.448,0.006,2.896,0.011,4.344,0.015l1.152,0.003
		c1.768,0.004,3.535,0.006,5.305,0.006c286.3,0,539.777-47.33,695.242-120.023l0.222-0.104c0.94-0.44,1.877-0.881,2.81-1.322
		l0.139-0.066c0.887-0.42,1.77-0.842,2.651-1.263l0.344-0.163c0.883-0.424,1.762-0.849,2.639-1.274
		c0.563-0.273,1.123-0.548,1.683-0.822l1.151-0.563c0.633-0.311,1.263-0.624,1.892-0.935l0.728-0.36
		c0.734-0.364,1.463-0.73,2.192-1.096l0.334-0.168c0.78-0.393,1.559-0.786,2.334-1.181l0.167-0.085
		c0.919-0.468,1.834-0.937,2.747-1.407c0.115-0.06,0.231-0.12,0.347-0.18c60.652-31.307,103.734-66.827,124.531-104.971
		L2027.208,735.948z"/>
</g>
<path style="fill:#36363D;" d="M913.892,516.234c0.121-0.013,0.24-0.027,0.361-0.04c0.923-0.104,1.849-0.208,2.774-0.311
	c0.32-0.036,0.639-0.071,0.957-0.107c0.875-0.097,1.75-0.193,2.627-0.289c0.262-0.029,0.523-0.057,0.785-0.086
	c0.882-0.096,1.764-0.192,2.646-0.287c0.366-0.04,0.732-0.08,1.099-0.119c0.773-0.083,1.545-0.166,2.319-0.248
	c0.414-0.044,0.828-0.088,1.242-0.132c0.77-0.081,1.539-0.162,2.31-0.243c0.43-0.045,0.862-0.09,1.292-0.135
	c0.779-0.081,1.558-0.162,2.337-0.243c0.406-0.042,0.811-0.084,1.215-0.125c0.737-0.075,1.475-0.151,2.212-0.226
	c0.545-0.055,1.091-0.11,1.635-0.165c0.637-0.065,1.273-0.129,1.911-0.192c0.553-0.056,1.105-0.11,1.658-0.165
	c0.697-0.069,1.393-0.138,2.091-0.207c0.37-0.036,0.741-0.073,1.112-0.109c0.864-0.084,1.727-0.169,2.591-0.252
	c0.288-0.027,0.576-0.056,0.865-0.084c0.911-0.088,1.823-0.175,2.736-0.262c0.301-0.029,0.602-0.057,0.902-0.086
	c0.857-0.081,1.714-0.162,2.573-0.243c0.441-0.041,0.884-0.082,1.326-0.123c0.802-0.074,1.604-0.149,2.406-0.223
	c0.359-0.033,0.72-0.065,1.079-0.098c0.788-0.072,1.577-0.144,2.367-0.215c0.733-0.066,1.467-0.132,2.201-0.198
	c0.505-0.045,1.009-0.091,1.514-0.136c1.207-0.107,2.414-0.213,3.623-0.319l0.04-0.003c1.331-0.116,2.663-0.231,3.996-0.345
	l0.623-0.053c1.218-0.103,2.437-0.206,3.657-0.308l0.852-0.071c1.179-0.098,2.359-0.196,3.54-0.292l0.875-0.072
	c1.21-0.098,2.424-0.196,3.637-0.292l0.879-0.07c1.107-0.088,2.214-0.175,3.323-0.261l1.309-0.102
	c1.068-0.083,2.136-0.165,3.206-0.245l1.272-0.096c1.058-0.08,2.118-0.16,3.177-0.238l1.427-0.105
	c1.007-0.074,2.014-0.147,3.023-0.22l1.454-0.104c1.056-0.076,2.112-0.151,3.169-0.225l1.199-0.084
	c1.112-0.077,2.226-0.154,3.339-0.231l1.287-0.087c1.012-0.068,2.025-0.137,3.039-0.205c0.592-0.039,1.186-0.078,1.779-0.117
	c0.964-0.063,1.927-0.127,2.891-0.189l1.326-0.085c1.085-0.069,2.171-0.139,3.259-0.207l1.474-0.091
	c0.973-0.06,1.947-0.121,2.921-0.18c0.621-0.038,1.245-0.075,1.868-0.112c0.104-0.006,0.207-0.012,0.311-0.018l0.021-0.001
	c0.849-0.051,1.696-0.102,2.546-0.152l0.796-0.046c0.178-0.011,0.358-0.02,0.537-0.031c2.199-0.128,4.401-0.253,6.606-0.376
	c0.399-0.022,0.798-0.046,1.198-0.069l0.6-0.032l1.277-0.069l0.109-0.006l0.193-0.011l0.148-0.008
	c2.178-0.118,4.36-0.233,6.543-0.345c0.281-0.014,0.561-0.03,0.843-0.044c0.421-0.021,0.843-0.042,1.264-0.063
	c1.592-0.08,3.184-0.16,4.777-0.237c0.469-0.023,0.935-0.047,1.403-0.07l1.162-0.057c1.017-0.048,2.036-0.095,3.054-0.143
	c0.522-0.024,1.043-0.049,1.565-0.073l1.423-0.064l0.385-0.017l0.978-0.044c0.635-0.028,1.27-0.057,1.905-0.085
	c0.772-0.034,1.544-0.066,2.317-0.1l0.056-0.002l0.303-0.013c0.679-0.029,1.357-0.059,2.036-0.087
	c0.857-0.036,1.713-0.071,2.57-0.106c0.669-0.027,1.337-0.055,2.007-0.082c0.526-0.021,1.054-0.041,1.581-0.062
	c0.047-0.002,0.094-0.004,0.141-0.006l0.956-0.038c0.703-0.027,1.405-0.055,2.108-0.082c0.791-0.03,1.582-0.06,2.373-0.089
	c0.766-0.029,1.532-0.057,2.299-0.085c0.821-0.03,1.641-0.059,2.462-0.087c0.731-0.026,1.464-0.052,2.195-0.078
	c0.591-0.02,1.181-0.04,1.772-0.06l0.085-0.003l0.778-0.026c0.703-0.023,1.406-0.047,2.109-0.07
	c0.739-0.024,1.479-0.047,2.218-0.071l0.76-0.025c0.612-0.019,1.224-0.038,1.837-0.057c0.735-0.022,1.471-0.045,2.207-0.066
	c0.332-0.01,0.664-0.02,0.997-0.03c0.235-0.007,0.472-0.014,0.708-0.021c0.283-0.009,0.565-0.017,0.848-0.025
	c0.741-0.021,1.481-0.042,2.223-0.063c0.698-0.02,1.395-0.039,2.093-0.058l0.572-0.015c0.721-0.02,1.442-0.038,2.164-0.057
	c0.753-0.019,1.505-0.039,2.258-0.057c0.459-0.012,0.918-0.023,1.377-0.034c0.143-0.004,0.286-0.007,0.428-0.011l0.612-0.015
	c0.841-0.021,1.683-0.04,2.526-0.06c0.557-0.013,1.113-0.026,1.67-0.039l0.51-0.011c0.843-0.019,1.688-0.037,2.533-0.055
	c0.753-0.016,1.506-0.032,2.26-0.047l0.356-0.007l0.26-0.005c0.647-0.013,1.295-0.025,1.943-0.038
	c0.691-0.013,1.383-0.027,2.074-0.04l1.478-0.028l1.156-0.02l0.022-0.001c0.79-0.014,1.58-0.027,2.371-0.041
	c0.529-0.009,1.06-0.017,1.59-0.026l1.44-0.023c0.586-0.01,1.171-0.018,1.758-0.027c0.677-0.01,1.355-0.02,2.033-0.029l0.444-0.006
	l1.163-0.017l1.09-0.014c0.748-0.01,1.495-0.018,2.243-0.027c0.717-0.009,1.434-0.018,2.152-0.026l0.403-0.004
	c0.676-0.007,1.353-0.014,2.029-0.021c0.939-0.01,1.879-0.02,2.82-0.029l0.383-0.004c0.513-0.005,1.026-0.008,1.539-0.012
	c0.922-0.008,1.842-0.016,2.764-0.023l1.105-0.008c0.606-0.004,1.212-0.007,1.818-0.011l0.022-0.001
	c0.578-0.004,1.156-0.008,1.735-0.011c0.633-0.004,1.268-0.007,1.901-0.01c0.626-0.003,1.253-0.006,1.88-0.008l1.079-0.004
	c0.802-0.003,1.606-0.005,2.409-0.007c0.658-0.002,1.316-0.004,1.974-0.006l0.471-0.001c1.611-0.003,3.223-0.004,4.837-0.004
	c1.752,0,3.501,0.002,5.252,0.005c0.637,0.002,1.275,0.004,1.911,0.006c1.151,0.003,2.301,0.007,3.451,0.011
	c0.659,0.002,1.318,0.006,1.976,0.009c1.115,0.006,2.229,0.012,3.343,0.018c0.679,0.004,1.357,0.009,2.036,0.013
	c1.162,0.008,2.325,0.017,3.486,0.027c0.561,0.004,1.122,0.009,1.683,0.014c1.373,0.012,2.744,0.026,4.114,0.041l1.156,0.012
	c1.513,0.017,3.027,0.035,4.539,0.054l0.829,0.01c3.637,0.048,7.269,0.103,10.894,0.166l0.43,0.008
	c1.698,0.029,3.395,0.061,5.09,0.094l0.361,0.007c1.721,0.033,3.44,0.069,5.157,0.107l0.335,0.007
	c3.113,0.068,6.22,0.142,9.325,0.22c0.003,0,0.007,0.001,0.012,0.001c3.027,0.077,6.049,0.16,9.067,0.247
	c0.162,0.004,0.323,0.009,0.485,0.014c340.833,9.954,624.514,87.163,733.469,192.013c0.033,0.032,0.068,0.065,0.1,0.097
	c0.509,0.491,1.015,0.981,1.517,1.473c0.049,0.048,0.098,0.096,0.146,0.144c1.069,1.049,2.121,2.102,3.154,3.157
	c0.056,0.057,0.112,0.115,0.168,0.172c0.429,0.439,0.855,0.879,1.279,1.319c0.123,0.129,0.246,0.258,0.369,0.386
	c0.376,0.393,0.75,0.786,1.122,1.18c0.118,0.126,0.238,0.253,0.358,0.379c0.475,0.506,0.947,1.012,1.414,1.52l0.102,0.112
	c0.937,1.02,1.857,2.041,2.761,3.065l0.132,0.149l0.827,0.944l0.242,0.281c0.807,0.93,1.6,1.863,2.379,2.798l0.391,0.471
	l0.663,0.804l0.42,0.516l0.99,1.229l0.525,0.659l0.553,0.703l0.51,0.655l0.508,0.656l0.89,1.168l0.465,0.621l0.561,0.753
	l0.448,0.609l0.698,0.961l0.429,0.597l0.74,1.045l0.358,0.511l0.679,0.982l0.26,0.379l0.911,1.35l0.238,0.36l0.666,1.013
	l0.312,0.481c0.594,0.919,1.174,1.838,1.742,2.76l0.223,0.365l0.7,1.157l0.158,0.263l0.82,1.393l0.202,0.351l0.627,1.099
	l0.212,0.377l0.784,1.414c9.369-17.026,14.191-34.543,14.191-52.48c0-47.619-34.246-92.54-94.89-132.124
	C1805.025,459.9,1517.463,396.42,1185.839,396.42c-472.917,0-856.343,129.132-856.343,288.463c0,13.068,2.562,25.913,7.575,38.508
	l0.037,0.094l0.566,1.395l0.418,0.996l0.164,0.388c1.598,3.722,3.407,7.422,5.431,11.099
	C400.303,633.523,622.099,549.135,913.892,516.234z"/>
<path style="fill:#8AA027;" d="M2027.992,737.363l-0.784-1.414l-0.212-0.377l-0.627-1.099l-0.202-0.351l-0.82-1.393l-0.158-0.263
	l-0.7-1.157l-0.223-0.365c-0.568-0.922-1.149-1.842-1.742-2.76l-0.312-0.481l-0.666-1.013l-0.238-0.36l-0.911-1.35l-0.26-0.379
	l-0.679-0.982l-0.358-0.511l-0.74-1.045l-0.429-0.597l-0.698-0.961l-0.448-0.609l-0.561-0.753l-0.465-0.621l-0.89-1.168
	l-0.508-0.656l-0.51-0.655l-0.553-0.703l-0.525-0.659l-0.99-1.229l-0.42-0.516l-0.663-0.804l-0.391-0.471
	c-0.779-0.935-1.572-1.867-2.379-2.798l-0.242-0.281l-0.827-0.944l-0.132-0.149c-0.904-1.024-1.824-2.045-2.761-3.065l-0.102-0.112
	c-0.467-0.508-0.939-1.014-1.414-1.52c-0.119-0.127-0.239-0.253-0.358-0.379c-0.372-0.394-0.745-0.787-1.122-1.18
	c-0.123-0.129-0.246-0.258-0.369-0.386c-0.424-0.44-0.85-0.88-1.279-1.319c-0.056-0.057-0.112-0.115-0.168-0.172
	c-1.034-1.055-2.086-2.108-3.154-3.157c-0.048-0.048-0.097-0.096-0.146-0.144c-0.502-0.492-1.008-0.983-1.517-1.473
	c-0.032-0.032-0.067-0.065-0.1-0.097c-32.488-31.257-80.508-60.056-140.933-85.351c1.866,6.485,3.314,13.138,4.251,19.962
	c3.471,25.277,1.463,51.933-10.088,75.024c-10.202,20.393-26.096,36.568-45.254,48.729c-41.277,26.203-93.198,33.664-141.26,32.742
	c-33.028-0.634-65.88-7.174-98.932-6.154c-14.944,0.461-30.202,2.934-43.517,10.037c-12.669,6.759-21.958,17.808-28.608,30.354
	c-6.417,12.107-10.79,25.189-16.568,37.595c-6.184,13.275-13.976,24.832-23.678,35.782c-20.495,23.131-48.774,39.551-80.287,39.538
	c-30.01-0.012-56.467-17.303-75.507-39.361c-5.957-6.901-11.96-16.242-21.086-19.189c-12.302-3.973-26.983,2.208-37.946,7.516
	c-27.732,13.426-50.406,35.393-74.496,54.158c-12.574,9.794-25.684,19.123-39.831,26.527c-7.118,3.725-14.563,6.712-22.105,9.448
	c25.006,0.855,50.319,1.36,75.91,1.477l0.731,0.003c1.448,0.006,2.896,0.011,4.344,0.015l1.152,0.003
	c1.768,0.004,3.535,0.006,5.305,0.006c286.3,0,539.777-47.33,695.242-120.023l0.222-0.104c0.94-0.44,1.877-0.881,2.81-1.322
	l0.139-0.066c0.887-0.42,1.77-0.842,2.651-1.263l0.344-0.163c0.883-0.424,1.762-0.849,2.639-1.274
	c0.563-0.273,1.123-0.548,1.683-0.822l1.151-0.563c0.633-0.311,1.263-0.624,1.892-0.935l0.728-0.36
	c0.734-0.364,1.463-0.73,2.192-1.096l0.334-0.168c0.78-0.393,1.559-0.786,2.334-1.181l0.167-0.085
	c0.919-0.468,1.834-0.937,2.747-1.407c0.115-0.06,0.231-0.12,0.347-0.18C1964.112,811.027,2007.194,775.507,2027.992,737.363z"/>
<path style="fill:#6D831D;" d="M1534.408,609.215c-3.783-20.022-10.46-39.449-11.605-59.921c-0.453-8.109-0.06-16.395,1.235-24.529
	c-81.944-11.879-170.484-19.581-263.265-22.294c-0.162-0.005-0.324-0.01-0.485-0.014c-3.018-0.088-6.04-0.17-9.067-0.247
	c-0.005,0-0.008-0.001-0.012-0.001c-3.104-0.079-6.212-0.153-9.325-0.22l-0.335-0.007c-1.717-0.037-3.437-0.073-5.157-0.107
	l-0.361-0.007c-1.695-0.033-3.392-0.065-5.09-0.094l-0.43-0.008c-3.625-0.063-7.257-0.118-10.894-0.166l-0.829-0.01
	c-1.512-0.019-3.025-0.037-4.539-0.054l-1.156-0.012c-1.37-0.014-2.742-0.028-4.114-0.041c-0.561-0.005-1.122-0.01-1.683-0.014
	c-1.161-0.01-2.323-0.019-3.486-0.027c-0.679-0.004-1.357-0.009-2.036-0.013c-1.114-0.007-2.228-0.013-3.343-0.018
	c-0.659-0.003-1.318-0.007-1.976-0.009c-1.15-0.004-2.3-0.008-3.451-0.011c-0.637-0.002-1.275-0.004-1.911-0.006
	c-1.75-0.003-3.5-0.005-5.252-0.005c-1.751,0-3.5,0.002-5.25,0.005h-0.058c-0.658,0.002-1.316,0.004-1.974,0.006
	c-1.149,0.003-2.299,0.007-3.447,0.012h-0.041c-0.626,0.002-1.253,0.006-1.88,0.008c-1.22,0.006-2.439,0.013-3.658,0.021
	c-0.606,0.004-1.212,0.007-1.818,0.011c-1.288,0.009-2.576,0.02-3.864,0.031h-0.006c-0.513,0.005-1.026,0.008-1.539,0.012
	c-1.745,0.016-3.489,0.034-5.232,0.054l-0.403,0.004l-1.035,0.013c-1.287,0.015-2.574,0.031-3.859,0.048l-0.591,0.007l-1.163,0.017
	l-0.242,0.003c-1.118,0.016-2.235,0.032-3.351,0.049l-0.642,0.01l-1.44,0.023c-1.321,0.021-2.642,0.043-3.962,0.066l-0.022,0.001
	l-1.156,0.02c-1.833,0.033-3.664,0.068-5.495,0.105l-0.26,0.005c-1.718,0.035-3.434,0.071-5.15,0.11l-0.51,0.011l-0.607,0.014
	c-1.402,0.032-2.801,0.065-4.201,0.099c-0.142,0.003-0.285,0.007-0.428,0.011l-1.103,0.027c-1.421,0.036-2.841,0.073-4.26,0.11
	l-0.436,0.011l-0.572,0.015c-1.723,0.047-3.445,0.095-5.165,0.146c-0.236,0.007-0.472,0.014-0.708,0.021
	c-1.681,0.05-3.362,0.1-5.04,0.153l-0.76,0.025l-0.099,0.003c-1.518,0.049-3.035,0.098-4.55,0.149l-0.457,0.015l-0.085,0.003
	l-0.513,0.018c-1.537,0.052-3.072,0.106-4.606,0.161l-0.837,0.03c-2.74,0.099-5.476,0.202-8.209,0.311
	c-0.047,0.002-0.094,0.003-0.141,0.006c-2.735,0.108-5.467,0.22-8.194,0.337l-0.303,0.013l-0.056,0.002
	c-1.735,0.075-3.469,0.151-5.2,0.229l-0.385,0.017c-2.874,0.13-5.742,0.266-8.608,0.406c-1.593,0.078-3.185,0.157-4.777,0.237
	c-0.676,0.035-1.351,0.069-2.026,0.103c-0.027,0.001-0.054,0.003-0.08,0.004c-2.184,0.113-4.365,0.227-6.543,0.345l-0.148,0.008
	l-0.193,0.011l-0.109,0.006c-1.025,0.056-2.051,0.113-3.075,0.17c-2.204,0.123-4.407,0.248-6.606,0.376
	c-1.294,0.075-2.587,0.152-3.878,0.229l-0.021,0.001c-0.104,0.006-0.208,0.012-0.311,0.018c-0.623,0.037-1.246,0.074-1.868,0.112
	c-0.974,0.059-1.948,0.12-2.921,0.18l-1.474,0.091c-1.087,0.068-2.173,0.138-3.259,0.207l-1.326,0.085
	c-0.964,0.062-1.927,0.126-2.891,0.189c-0.593,0.039-1.186,0.078-1.779,0.117c-1.013,0.068-2.026,0.137-3.039,0.205l-1.287,0.087
	c-1.114,0.076-2.227,0.153-3.339,0.231l-1.199,0.084c-1.057,0.074-2.113,0.15-3.169,0.225l-1.454,0.104
	c-1.009,0.073-2.016,0.147-3.023,0.22l-1.427,0.105c-1.059,0.078-2.119,0.158-3.177,0.238l-1.272,0.096
	c-1.069,0.081-2.138,0.163-3.206,0.245l-1.309,0.102c-1.109,0.086-2.215,0.173-3.323,0.261l-0.879,0.07
	c-1.213,0.096-2.426,0.194-3.637,0.292l-0.875,0.072c-1.181,0.096-2.362,0.194-3.54,0.292l-0.852,0.071
	c-1.221,0.102-2.439,0.205-3.657,0.308l-0.623,0.053c-1.333,0.114-2.665,0.229-3.996,0.345l-0.04,0.003
	c-1.209,0.105-2.416,0.211-3.623,0.319c-0.505,0.045-1.009,0.091-1.514,0.136c-0.734,0.065-1.468,0.131-2.201,0.198
	c-0.789,0.071-1.579,0.143-2.367,0.215c-0.36,0.033-0.721,0.065-1.079,0.098c-0.803,0.074-1.604,0.149-2.406,0.223
	c-0.443,0.041-0.885,0.082-1.326,0.123c-0.858,0.08-1.716,0.161-2.573,0.243c-0.301,0.028-0.602,0.057-0.902,0.086
	c-0.913,0.086-1.825,0.174-2.736,0.262c-0.289,0.028-0.577,0.056-0.865,0.084c-0.865,0.084-1.728,0.168-2.591,0.252
	c-0.371,0.037-0.742,0.073-1.112,0.109c-0.697,0.069-1.394,0.137-2.091,0.207c-0.553,0.055-1.106,0.109-1.658,0.165
	c-0.638,0.063-1.275,0.128-1.911,0.192c-0.545,0.055-1.091,0.11-1.635,0.165c-0.737,0.075-1.474,0.15-2.212,0.226
	c-0.404,0.042-0.81,0.084-1.215,0.125c-0.779,0.08-1.559,0.161-2.337,0.243c-0.431,0.045-0.862,0.09-1.292,0.135
	c-0.771,0.081-1.54,0.162-2.31,0.243c-0.414,0.044-0.828,0.088-1.242,0.132c-0.773,0.083-1.546,0.165-2.319,0.248
	c-0.367,0.039-0.734,0.079-1.099,0.119c-0.882,0.095-1.765,0.191-2.646,0.287c-0.262,0.029-0.523,0.057-0.785,0.086
	c-0.876,0.096-1.751,0.192-2.627,0.289c-0.318,0.035-0.638,0.071-0.957,0.107c-0.925,0.103-1.851,0.206-2.774,0.311
	c-0.121,0.013-0.241,0.027-0.361,0.04c-278.339,31.387-492.969,109.629-561.301,206.911c3.307,11.369,9.188,22.535,18.345,33.281
	c29.102,34.151,72.355,58.172,117.979,56.872c21.56-0.614,41.063-8.004,60.17-17.392c18.417-9.051,37.192-19.333,57.87-21.913
	c20.813-2.596,41.288,3.087,57.792,15.999c13.478,10.546,23.582,24.238,34.426,37.293c10.286,12.384,21.737,23.508,37.698,27.835
	c15.952,4.326,33.99,3.241,49.7-1.524c30.035-9.111,54.451-30.601,82.455-44.03c33.387-16.01,68.18-16.207,102.347-2.059
	c33.18,13.74,59.429,38.038,89.713,56.581c13.645,8.355,28.56,14.935,44.565,16.843c19.797,2.36,39.848-2.228,58.223-9.48
	c14.336-5.657,27.494-14.528,33.655-29.159c5.283-12.541,5.834-26.368,6.688-39.769c1.928-30.252,7.493-61.076,33.719-80.076
	c28.004-20.287,65.468-25.154,98.966-28.371c18.326-1.76,36.713-2.709,55.085-3.824c15.356-0.933,30.622-3.142,45.933-4.11
	c17.128-1.083,34.371-1.793,51.265-5.035c14.188-2.723,30.321-7.435,39.512-19.442
	C1539.862,647.083,1537.603,626.126,1534.408,609.215z"/>
<path style="fill:#8AA027;" d="M587.786,598.409c19.906,4.14,39.18,11.391,55.861,23.198c14.337,10.148,25.533,23.364,35.621,37.589
	c8.095,11.414,15.861,24.063,27.823,31.841c14.417,9.374,33.057,8.018,49.084,4.413c36.495-8.208,68.156-32.375,107.264-24.923
	c19.035,3.627,35.028,14.079,51.795,22.828c21.566,11.252,43.57,22.043,66.556,30.105c9.96,3.494,19.962,6.536,30.387,7.737
	c4.523,0.521,8.328,0.672,11.646,0.241c1.181-0.153,2.339-0.369,3.504-0.617c1.338-0.286,1.247-0.313,1.162-0.282
	c1.229-0.445,3.768-1.743,3.816-1.776c2.011-1.371,2.865-2.537,3.887-5.169c0.952-2.45,1.465-6.739,1.267-10.435
	c-0.576-10.696-3.375-21.924-11.565-29.31c-8.911-8.038-20.994-12.12-32.252-15.575c-12.68-3.891-25.661-6.708-38.353-10.555
	c-10.944-3.318-22.441-7.437-31.146-15.112c-8.787-7.749-12.399-18.033-12.297-29.602c0.196-22.168,18.614-34.438,38.3-38.953
	c24.585-5.638,51.311-3.052,75.984,0.621c23.585,3.511,47.233,8.655,69.901,16.12c30.22,9.952,54.006,33.389,84.524,42.622
	c21.455,6.492,40.958-0.456,57.701-14.476c6.398-5.357,14.259-11.737,17.414-19.763c1.697-4.315,0.946-7.206-0.927-11.154
	c-5.525-11.65-13.234-21.318-14.581-34.668c-1.697-16.823,4.397-31.993,15.769-44.246c2.137-2.302,4.431-4.44,6.793-6.504
	c-25.347-0.761-50.95-1.225-76.886-1.225c-1.751,0-3.5,0.002-5.25,0.005h-0.058c-0.658,0.002-1.316,0.004-1.974,0.006
	c-1.149,0.003-2.299,0.007-3.447,0.012h-0.041c-0.626,0.002-1.253,0.006-1.88,0.008c-1.22,0.006-2.439,0.013-3.658,0.021
	c-0.606,0.004-1.212,0.007-1.818,0.011c-1.288,0.009-2.576,0.02-3.864,0.031h-0.006c-0.513,0.005-1.026,0.008-1.539,0.012
	c-1.745,0.016-3.489,0.034-5.232,0.054l-0.403,0.004l-1.035,0.013c-1.287,0.015-2.574,0.031-3.859,0.048l-0.591,0.007l-1.163,0.017
	l-0.242,0.003c-1.118,0.016-2.235,0.032-3.351,0.049l-0.642,0.01l-1.44,0.023c-1.321,0.021-2.642,0.043-3.962,0.066l-0.022,0.001
	l-1.156,0.02c-1.833,0.033-3.664,0.068-5.495,0.105l-0.26,0.005c-1.718,0.035-3.434,0.071-5.15,0.11l-0.51,0.011l-0.607,0.014
	c-1.402,0.032-2.801,0.065-4.201,0.099c-0.142,0.003-0.285,0.007-0.428,0.011c-0.368,0.009-0.735,0.018-1.103,0.027
	c-1.421,0.036-2.841,0.073-4.26,0.11l-0.436,0.011l-0.572,0.015c-1.723,0.047-3.445,0.095-5.165,0.146
	c-0.236,0.007-0.472,0.014-0.708,0.021c-1.681,0.05-3.362,0.1-5.04,0.153l-0.76,0.025l-0.099,0.003
	c-1.518,0.049-3.035,0.098-4.55,0.149l-0.457,0.015l-0.085,0.003l-0.513,0.018c-1.537,0.052-3.072,0.106-4.606,0.161l-0.837,0.03
	c-2.74,0.099-5.476,0.202-8.209,0.311c-0.047,0.002-0.094,0.003-0.141,0.006c-2.735,0.108-5.467,0.22-8.194,0.337l-0.303,0.013
	l-0.056,0.002c-1.735,0.075-3.469,0.151-5.2,0.229l-0.385,0.017c-2.874,0.13-5.742,0.266-8.608,0.406
	c-1.593,0.078-3.185,0.157-4.777,0.237c-0.676,0.035-1.351,0.069-2.026,0.103c-0.027,0.001-0.054,0.003-0.08,0.004
	c-2.184,0.113-4.365,0.227-6.543,0.345l-0.148,0.008l-0.193,0.011l-0.109,0.006c-1.025,0.056-2.051,0.113-3.075,0.17
	c-2.204,0.123-4.407,0.248-6.606,0.376c-1.294,0.075-2.587,0.152-3.878,0.229l-0.021,0.001
	c-188.003,11.276-354.778,43.229-478.89,88.621C566.69,594.988,577.365,596.242,587.786,598.409z"/>
<path style="fill:#3C3B41;" d="M2020.931,939.635c-67.324,81.894-148.603,151.012-235.394,211.427
	c-65.431,45.547-135.65,84.086-208.832,115.657c-75.018,32.362-153.182,57.566-232.85,75.63
	c-80.207,18.186-161.994,28.968-244.16,32.367c-81.395,3.368-163.166-0.784-243.684-13.296
	c-78.917-12.264-156.764-32.452-231.152-61.62c-73.207-28.705-143.202-66.14-206.855-112.38c-2.452-1.78-4.828-3.664-7.26-5.47
	c104.201,145.751,264.771,279.668,505.878,338.932c0.271,0.067,0.542,0.134,0.814,0.201c1.758,0.431,3.522,0.854,5.288,1.277
	c0.453,0.108,0.906,0.218,1.36,0.326c1.604,0.381,3.214,0.757,4.826,1.132c0.652,0.152,1.303,0.304,1.956,0.455
	c1.51,0.349,3.024,0.692,4.542,1.034c0.727,0.164,1.453,0.328,2.182,0.492c1.474,0.329,2.952,0.654,4.432,0.978
	c0.791,0.173,1.583,0.347,2.376,0.518c1.414,0.306,2.83,0.609,4.248,0.909c0.887,0.189,1.775,0.376,2.665,0.562
	c1.334,0.279,2.67,0.556,4.008,0.83c0.972,0.199,1.944,0.398,2.919,0.595c1.315,0.266,2.632,0.529,3.951,0.791
	c0.982,0.195,1.965,0.388,2.949,0.58c1.302,0.254,2.607,0.508,3.915,0.758c1.031,0.197,2.065,0.393,3.1,0.587
	c1.271,0.239,2.542,0.478,3.817,0.714c1.064,0.196,2.13,0.39,3.196,0.583c1.271,0.231,2.542,0.461,3.817,0.688
	c1.077,0.192,2.159,0.38,3.239,0.569c1.259,0.22,2.519,0.44,3.782,0.656c1.111,0.19,2.225,0.376,3.339,0.563
	c1.249,0.21,2.496,0.42,3.748,0.626c1.151,0.19,2.307,0.374,3.462,0.56c1.212,0.195,2.421,0.391,3.637,0.583
	c1.295,0.204,2.596,0.402,3.895,0.602c1.08,0.166,2.158,0.336,3.241,0.499c1.517,0.229,3.041,0.451,4.563,0.675
	c0.885,0.13,1.766,0.263,2.653,0.391c2.413,0.348,4.833,0.691,7.261,1.025l0.057,0.008c1.31,0.181,2.622,0.359,3.936,0.535
	l0.598,0.08c1.141,0.152,2.283,0.304,3.427,0.453l0.937,0.121c1.047,0.136,2.095,0.271,3.145,0.404l1.073,0.135
	c1.016,0.128,2.031,0.255,3.049,0.38l1.092,0.133c1.016,0.124,2.033,0.248,3.052,0.37l1.173,0.139
	c0.969,0.115,1.939,0.229,2.909,0.342l1.314,0.151c0.975,0.112,1.95,0.223,2.927,0.332l1.166,0.13
	c0.978,0.109,1.959,0.218,2.94,0.324l1.422,0.153c0.923,0.099,1.846,0.198,2.771,0.295l1.336,0.139
	c0.981,0.102,1.961,0.203,2.943,0.303l1.207,0.122c1.007,0.101,2.015,0.201,3.026,0.3l1.248,0.122
	c0.953,0.092,1.909,0.184,2.865,0.274c0.509,0.048,1.019,0.095,1.528,0.143c0.89,0.083,1.78,0.165,2.671,0.245
	c0.528,0.048,1.056,0.095,1.585,0.143c0.892,0.079,1.785,0.158,2.68,0.237c0.511,0.045,1.023,0.089,1.535,0.133
	c0.942,0.081,1.885,0.161,2.83,0.24l1.45,0.12c0.886,0.073,1.774,0.146,2.662,0.216c0.588,0.047,1.176,0.094,1.765,0.141
	c0.836,0.066,1.673,0.131,2.51,0.195c0.585,0.045,1.17,0.09,1.757,0.134c0.878,0.066,1.758,0.132,2.638,0.196
	c0.538,0.04,1.074,0.079,1.612,0.118c0.918,0.066,1.837,0.131,2.757,0.195c0.532,0.037,1.064,0.074,1.597,0.11
	c0.855,0.059,1.711,0.116,2.568,0.173c0.635,0.042,1.268,0.084,1.905,0.125c0.771,0.05,1.544,0.099,2.318,0.147
	c0.674,0.042,1.346,0.085,2.021,0.127c0.821,0.05,1.643,0.099,2.465,0.148c0.613,0.037,1.224,0.073,1.838,0.109
	c0.856,0.05,1.712,0.098,2.57,0.146c0.618,0.035,1.235,0.069,1.854,0.103c0.852,0.046,1.706,0.091,2.559,0.136
	c0.589,0.031,1.175,0.062,1.764,0.092c0.933,0.048,1.867,0.094,2.802,0.14c0.534,0.026,1.069,0.053,1.604,0.078
	c0.87,0.042,1.74,0.081,2.611,0.12c0.636,0.029,1.272,0.059,1.909,0.087c0.792,0.035,1.585,0.068,2.379,0.101
	c0.681,0.029,1.362,0.059,2.044,0.086c0.75,0.031,1.501,0.059,2.252,0.088c0.751,0.029,1.502,0.059,2.254,0.088
	c0.736,0.027,1.474,0.053,2.212,0.079c0.732,0.026,1.463,0.053,2.196,0.078c0.749,0.026,1.499,0.05,2.248,0.073
	c0.754,0.025,1.508,0.05,2.263,0.073c0.812,0.025,1.624,0.047,2.436,0.071c0.659,0.018,1.318,0.038,1.979,0.057
	c0.733,0.02,1.468,0.037,2.203,0.056c0.806,0.021,1.61,0.042,2.417,0.061c0.534,0.012,1.07,0.023,1.604,0.035
	c0.939,0.021,1.877,0.043,2.817,0.063c0.944,0.019,1.891,0.036,2.836,0.054c0.566,0.011,1.128,0.022,1.693,0.032
	c1.509,0.026,3.021,0.049,4.535,0.07v0.128c2.576-0.007,5.143-0.022,7.708-0.043c2.563,0.021,5.132,0.036,7.708,0.043v-0.128
	c1.438-0.02,2.873-0.042,4.307-0.066l1.476-0.027c0.94-0.017,1.879-0.034,2.818-0.053c0.556-0.011,1.109-0.023,1.664-0.036
	c0.888-0.018,1.774-0.037,2.66-0.058c0.546-0.012,1.091-0.026,1.635-0.04c0.894-0.022,1.787-0.045,2.679-0.068
	c0.552-0.015,1.102-0.03,1.653-0.045c0.882-0.024,1.764-0.05,2.645-0.076c0.565-0.017,1.128-0.034,1.693-0.052
	c0.833-0.026,1.666-0.052,2.497-0.08c0.614-0.021,1.227-0.041,1.84-0.062c0.827-0.028,1.653-0.057,2.478-0.087
	c0.553-0.02,1.106-0.04,1.658-0.061c0.948-0.035,1.894-0.073,2.84-0.11l1.374-0.054c1.047-0.043,2.092-0.088,3.136-0.132
	l1.069-0.046c1.126-0.05,2.248-0.101,3.372-0.153l0.9-0.041c1.393-0.065,2.786-0.134,4.175-0.204l0.879-0.046
	c1.126-0.057,2.249-0.116,3.372-0.176l1.24-0.068c0.939-0.052,1.877-0.103,2.815-0.157c0.607-0.035,1.214-0.07,1.821-0.106
	c0.792-0.046,1.583-0.093,2.374-0.14c0.546-0.033,1.092-0.068,1.638-0.101c0.868-0.054,1.736-0.108,2.602-0.163
	c0.526-0.033,1.051-0.068,1.576-0.101c0.829-0.054,1.657-0.108,2.484-0.164c0.562-0.038,1.123-0.075,1.684-0.114
	c0.835-0.057,1.669-0.115,2.502-0.173c0.546-0.039,1.09-0.076,1.635-0.116c0.871-0.062,1.74-0.126,2.609-0.19l1.396-0.103
	c1.012-0.075,2.024-0.153,3.035-0.231l1.021-0.079c1.117-0.088,2.233-0.177,3.347-0.267l0.771-0.061
	c4.168-0.341,8.319-0.701,12.449-1.081l0.234-0.022c1.253-0.115,2.505-0.233,3.754-0.351l0.985-0.095
	c0.987-0.095,1.975-0.191,2.961-0.288l1.277-0.127c0.958-0.095,1.914-0.193,2.87-0.29l1.049-0.108
	c1.033-0.106,2.064-0.214,3.096-0.323l0.912-0.097c0.992-0.105,1.983-0.213,2.973-0.321l1.219-0.133
	c0.953-0.105,1.906-0.212,2.856-0.318l1.074-0.121c1.192-0.135,2.383-0.272,3.572-0.411l0.259-0.03
	c6.786-0.793,13.517-1.64,20.195-2.54l0.277-0.037c1.205-0.163,2.409-0.327,3.61-0.493l0.571-0.079
	c1.138-0.158,2.274-0.317,3.408-0.479l0.541-0.077c1.148-0.163,2.296-0.329,3.442-0.496l0.503-0.073
	c1.181-0.172,2.361-0.347,3.54-0.523l0.321-0.048c335.598-50.198,534.074-235.958,646.11-425.357l0.23-0.39
	c0.358-0.605,0.715-1.21,1.07-1.816l0.253-0.431c0.335-0.57,0.669-1.14,1.002-1.71l0.375-0.643l0.834-1.432l0.513-0.883l0.714-1.234
	l0.551-0.955l0.616-1.07l0.742-1.295l0.276-0.482c0.31-0.542,0.619-1.083,0.927-1.624l0.226-0.397
	c0.641-1.128,1.279-2.257,1.914-3.385c0.226-0.401,0.451-0.803,0.676-1.204c0.411-0.733,0.821-1.465,1.23-2.198
	c0.272-0.487,0.543-0.973,0.813-1.461c0.357-0.643,0.713-1.286,1.068-1.928c0.282-0.51,0.564-1.02,0.845-1.53
	c0.295-0.536,0.588-1.07,0.88-1.606c0.711-1.297,1.417-2.595,2.12-3.892c0.15-0.276,0.299-0.551,0.449-0.827
	c0.442-0.819,0.882-1.639,1.323-2.458c0.115-0.214,0.23-0.429,0.346-0.644c0.467-0.872,0.933-1.744,1.396-2.615
	c0.07-0.131,0.139-0.262,0.209-0.393c63.317-119.189,93.724-236.278,103.872-318.331
	C2104.527,823.65,2065.984,884.832,2020.931,939.635z"/>
<path style="fill:#FDC75A;" d="M1061.044,662.703c5.411-1.589,8.985-4.868,7.164-8.433c-2.116-4.145-11.231-6.618-18.94-7.066
	c-5.093-0.296-9.844,0.19-12.277,1.625c-4.366,2.575-5.766,5.663,0.595,8.983C1044.212,661.27,1053.088,665.039,1061.044,662.703z"
	/>
<path style="fill:#FDC75A;" d="M1641.615,613.811c6.317,3.746,14.779,7.827,22.362,5.297c5.158-1.72,8.566-5.271,6.83-9.132
	c-2.018-4.488-10.706-7.165-18.056-7.651c-4.855-0.32-9.384,0.205-11.704,1.76C1636.886,606.873,1635.551,610.216,1641.615,613.811z
	"/>
<path style="fill:#FDC75A;" d="M836.09,577.993c6.627,3.825,15.503,7.993,23.459,5.409c5.411-1.756,8.984-5.383,7.164-9.325
	c-2.116-4.585-11.231-7.319-18.941-7.815c-5.092-0.328-9.843,0.209-12.276,1.797C831.13,570.907,829.73,574.321,836.09,577.993z"/>
<path style="fill:#FDC75A;" d="M918.743,844.746c-5.091-0.312-9.843,0.2-12.276,1.714c-4.366,2.716-5.766,5.973,0.594,9.475
	c6.628,3.649,15.503,7.625,23.459,5.161c5.411-1.676,8.984-5.135,7.165-8.896C935.568,847.828,926.453,845.22,918.743,844.746z"/>
<path style="fill:#FDC75A;" d="M801.296,657.282c3.863,0.367,8.224-0.298,10.249-2.089c2.355-2.082,0.022-4.794-3.284-6.42
	c-2.183-1.074-4.839-1.766-7.162-1.637c-4.166,0.23-7.336,1.224-7.001,3.765C794.446,653.548,795.615,656.743,801.296,657.282z"/>
<path style="fill:#FDC75A;" d="M1597.094,883.412c-2.183-1.074-4.838-1.765-7.161-1.637c-4.167,0.23-7.336,1.224-7.001,3.765
	c0.349,2.648,1.517,5.842,7.198,6.382c3.863,0.367,8.224-0.298,10.249-2.089C1602.734,887.75,1600.401,885.038,1597.094,883.412z"/>
<path style="fill:#FDC75A;" d="M457.744,699.116c-4.229-2.081-9.375-3.421-13.876-3.173c-8.073,0.446-14.214,2.371-13.565,7.295
	c0.675,5.13,2.94,11.319,13.948,12.364c7.485,0.711,15.934-0.577,19.857-4.047C468.67,707.521,464.15,702.266,457.744,699.116z"/>
<path style="fill:#FDC75A;" d="M763.162,883.412c-2.183-1.074-4.839-1.765-7.162-1.637c-4.166,0.23-7.336,1.224-7.001,3.765
	c0.349,2.648,1.517,5.842,7.198,6.382c3.864,0.367,8.224-0.298,10.249-2.089C768.802,887.75,766.468,885.038,763.162,883.412z"/>
<path style="fill:#FDC75A;" d="M910.914,726.985c-6.627-3.736-15.503-7.806-23.458-5.283c-5.411,1.716-8.985,5.257-7.165,9.107
	c2.116,4.476,11.231,7.147,18.941,7.631c5.092,0.32,9.843-0.205,12.277-1.755C915.875,733.904,917.275,730.57,910.914,726.985z"/>
<path style="fill:#FDC75A;" d="M714.857,751.67c-6.626-3.735-15.503-7.806-23.458-5.282c-5.411,1.715-8.985,5.257-7.164,9.107
	c2.116,4.476,11.231,7.146,18.941,7.631c5.092,0.32,9.843-0.205,12.277-1.755C719.818,758.59,721.218,755.255,714.857,751.67z"/>
<path style="fill:#FDC75A;" d="M1141.604,787.146c-6.627-4.068-15.503-8.502-23.459-5.754c-5.41,1.869-8.984,5.726-7.164,9.919
	c2.116,4.876,11.23,7.785,18.941,8.312c5.092,0.348,9.843-0.223,12.276-1.911C1146.564,794.683,1147.964,791.051,1141.604,787.146z"
	/>
<path style="fill:#FDC75A;" d="M1318.196,608.788c4.167-0.46,7.336-2.448,7.001-7.53c-0.349-5.295-1.517-11.685-7.199-12.763
	c-3.863-0.734-8.224,0.596-10.249,4.177c-2.354,4.164-0.022,9.588,3.285,12.84C1313.218,607.661,1315.873,609.045,1318.196,608.788z
	"/>
<path style="fill:#FDC75A;" d="M552.86,710.758c-3.863-0.367-8.224,0.298-10.249,2.089c-2.354,2.082-0.022,4.794,3.285,6.42
	c2.183,1.074,4.838,1.765,7.161,1.637c4.167-0.23,7.336-1.223,7.001-3.764C559.709,714.492,558.541,711.297,552.86,710.758z"/>
<path style="fill:#FDC75A;" d="M1544.663,723.746c7.956,2.75,16.832-1.687,23.458-5.759c6.361-3.908,4.961-7.542,0.595-10.574
	c-2.434-1.69-7.185-2.261-12.278-1.913c-7.71,0.528-16.824,3.439-18.94,8.318C1535.678,718.015,1539.252,721.875,1544.663,723.746z"
	/>
<path style="fill:#FDC75A;" d="M1768.98,718.586c7.956,2.425,16.832-1.488,23.459-5.078c6.361-3.446,4.961-6.651,0.595-9.324
	c-2.434-1.49-7.185-1.994-12.276-1.687c-7.711,0.466-16.825,3.033-18.941,7.335C1759.996,713.533,1763.57,716.937,1768.98,718.586z"
	/>
<path style="fill:#FDC75A;" d="M1830.517,802.384c-2.323-0.172-4.979,0.76-7.162,2.207c-3.306,2.191-5.639,5.845-3.284,8.651
	c2.025,2.413,6.385,3.309,10.249,2.815c5.681-0.727,6.85-5.031,7.198-8.599C1837.853,804.033,1834.683,802.694,1830.517,802.384z"/>
<path style="fill:#FDC75A;" d="M1711.879,837.819c-7.956-2.67-16.832,1.638-23.458,5.592c-6.361,3.795-4.961,7.324-0.595,10.268
	c2.434,1.641,7.185,2.196,12.277,1.857c7.71-0.513,16.824-3.339,18.94-8.077C1720.864,843.383,1717.29,839.635,1711.879,837.819z"/>
<path style="fill:#FDC75A;" d="M1481.189,896.436c-7.956-3.056-16.832,1.874-23.459,6.4c-6.36,4.343-4.96,8.382-0.594,11.751
	c2.433,1.878,7.184,2.513,12.276,2.126c7.71-0.587,16.825-3.821,18.941-9.244C1490.174,902.805,1486.6,898.514,1481.189,896.436z"/>
<path style="fill:#FDC75A;" d="M1419.653,812.606c2.323,0.128,4.979-0.564,7.161-1.638c3.307-1.626,5.639-4.338,3.285-6.42
	c-2.025-1.791-6.385-2.455-10.249-2.088c-5.682,0.539-6.85,3.733-7.198,6.381C1412.317,811.382,1415.486,812.376,1419.653,812.606z"
	/>
<polygon style="fill:#546123;" points="576.969,842.584 628.361,853.658 634.747,835.815 595.516,830.535 "/>
<polygon style="fill:#546123;" points="751.332,792.592 802.724,803.666 809.11,785.822 769.879,780.542 "/>
<polygon style="fill:#546123;" points="1196.201,928.872 1247.594,939.946 1253.98,922.103 1214.748,916.822 "/>
<polygon style="fill:#546123;" points="1033.26,772.342 1084.652,783.416 1091.038,765.573 1051.807,760.292 "/>
<polygon style="fill:#546123;" points="1383.001,629.277 1343.769,623.996 1325.222,636.046 1376.615,647.12 "/>
<polygon style="fill:#546123;" points="1859.277,772.342 1910.669,783.416 1917.056,765.573 1877.824,760.292 "/>
<polygon style="fill:#546123;" points="1091.191,555.864 1097.577,538.021 1058.345,532.74 1039.798,544.79 "/>
<polygon style="fill:#546123;" points="1572.447,842.185 1623.839,853.258 1630.226,835.415 1590.994,830.135 "/>
<polygon style="fill:#546123;" points="592.143,704.381 598.529,722.224 649.923,711.151 631.375,699.101 "/>
<polygon style="fill:#546123;" points="979.774,910.541 986.16,928.384 1037.554,917.31 1019.006,905.26 "/>
<polygon style="fill:#546123;" points="1344.897,769.468 1326.35,757.418 1287.117,762.698 1293.504,780.542 "/>
<polygon style="fill:#546123;" points="1661.591,696.437 1712.984,685.364 1694.437,673.313 1655.205,678.594 "/>
<polygon style="fill:#546123;" points="771.007,617.022 752.46,604.972 713.228,610.253 719.614,628.096 "/>
</svg>
